<svg xmlns="http://www.w3.org/2000/svg" width="48" height="48" viewBox="0 0 48 48"><g fill="none" fill-rule="evenodd"><circle cx="24" cy="24" r="23.5" stroke="#D8D8D8"></circle><g><path fill="#4285F4" d="M24.827 12.955c0-.899-.08-1.762-.23-2.591h-11.93v4.9h6.817c-.294 1.583-1.186 2.924-2.528 3.822v3.179h4.094c2.395-2.206 3.777-5.453 3.777-9.31z" transform="translate(11.333 11.333)"></path><path fill="#34A853" d="M12.667 25.333c3.42 0 6.287-1.134 8.383-3.068l-4.094-3.179c-1.134.76-2.585 1.21-4.29 1.21-3.298 0-6.09-2.229-7.087-5.223H1.347v3.282c2.085 4.14 6.368 6.978 11.32 6.978z" transform="translate(11.333 11.333)"></path><path fill="#FBBC05" d="M5.58 15.073c-.254-.76-.398-1.571-.398-2.406 0-.835.144-1.647.397-2.407V6.978H1.347C.49 8.688 0 10.623 0 12.667s.49 3.978 1.347 5.688l4.232-3.282z" transform="translate(11.333 11.333)"></path><path fill="#EA4335" d="M12.667 5.038c1.86 0 3.53.639 4.842 1.894L21.142 3.3C18.948 1.255 16.08 0 12.667 0 7.715 0 3.432 2.838 1.347 6.978L5.58 10.26c.996-2.994 3.789-5.222 7.088-5.222z" transform="translate(11.333 11.333)"></path></g></g></svg>