<svg xmlns="http://www.w3.org/2000/svg" xmlns:xlink="http://www.w3.org/1999/xlink" width="48" height="48" viewBox="0 0 48 48"><defs><path id="prefix__a" d="M28.5 15.453c.687 0 3.203.065 4.86 2.513-.141.112-2.641 1.578-2.641 4.831 0 3.753 3.172 5.09 3.281 5.122-.031.08-.516 1.82-1.687 3.591-1.047 1.546-2.157 3.124-3.813 3.124-1.687 0-2.11-1.014-4.031-1.014-1.89 0-2.563 1.047-4.078 1.047-1.532 0-2.594-1.45-3.813-3.221C15.156 29.352 14 26.115 14 23.055c0-4.928 3.11-7.537 6.172-7.537 1.61 0 2.969 1.095 4 1.095.953 0 2.469-1.16 4.328-1.16zm.375-6.12c.031.145.047.322.047.5 0 1.304-.547 2.609-1.297 3.543-.828 1.03-2.219 1.803-3.328 1.803-.125 0-.25-.016-.328-.032-.016-.064-.047-.257-.047-.45 0-1.321.64-2.61 1.344-3.431.89-1.08 2.375-1.884 3.609-1.933z"></path></defs><g fill="none" fill-rule="evenodd"><path fill="#000" d="M24 0c13.255 0 24 10.745 24 24S37.255 48 24 48 0 37.255 0 24 10.745 0 24 0z"></path><use fill="#FFF" xlink:href="#prefix__a"></use></g></svg>