<svg width="48" height="48" viewBox="0 0 48 48" fill="none" xmlns="http://www.w3.org/2000/svg"><circle cx="24" cy="24" r="24" fill="#1DA1F2"></circle><path d="M19.4515 37.3333C30.0245 37.3333 35.8057 28.6108 35.8057 21.0513C35.8057 20.8021 35.8057 20.5528 35.7938 20.3155C36.9143 19.5085 37.8917 18.4998 38.6665 17.3487C37.6414 17.7996 36.5328 18.1082 35.3647 18.2506C36.5567 17.5385 37.4626 16.423 37.8917 15.082C36.7831 15.7347 35.5554 16.2094 34.2442 16.4705C33.1952 15.3549 31.7052 14.6666 30.0484 14.6666C26.8777 14.6666 24.3029 17.23 24.3029 20.3867C24.3029 20.8377 24.3506 21.2767 24.4579 21.6921C19.678 21.4548 15.4464 19.1762 12.6095 15.711C12.1207 16.5535 11.8347 17.5385 11.8347 18.5829C11.8347 20.5647 12.8479 22.3211 14.3975 23.3417C13.4558 23.3179 12.5737 23.0569 11.7989 22.6296C11.7989 22.6534 11.7989 22.6771 11.7989 22.7008C11.7989 25.4778 13.7776 27.7801 16.4119 28.3141C15.9351 28.4446 15.4226 28.5158 14.8981 28.5158C14.5286 28.5158 14.171 28.4802 13.8134 28.409C14.5405 30.6876 16.6622 32.3371 19.1774 32.3846C17.2106 33.9155 14.7312 34.8293 12.0373 34.8293C11.5724 34.8293 11.1195 34.8055 10.6665 34.7462C13.1816 36.3839 16.2093 37.3333 19.4515 37.3333Z" fill="white"></path><circle cx="24" cy="24" r="24" fill="black"></circle><path d="M13.0561 13L21.9361 24.8706L13 34.5219H15.0112L22.8347 26.0721L29.1559 34.5219H36L26.6203 21.9836L34.938 13H32.9268L25.7217 20.7822L19.9001 13H13.0561ZM16.0136 14.4811H19.1578L33.042 33.0406H29.8978L16.0136 14.4811Z" fill="white"></path></svg>